<?xml version="1.0" encoding="UTF-8" standalone="no"?>
<!-- Created with Inkscape (http://www.inkscape.org/) -->

<svg
   width="10in"
   height="10in"
   viewBox="0 0 254 254"
   version="1.1"
   id="svg1"
   xml:space="preserve"
   xmlns="http://www.w3.org/2000/svg"
   xmlns:svg="http://www.w3.org/2000/svg"><defs
     id="defs1" /><g
     id="g2"><g
       id="layer1"
       style="display:inline"><g
         id="g1"
         transform="matrix(3.2672299,0,0,3.2672299,-275.45067,-238.29383)"><path
           style="display:inline;fill:#85c027"
           d="m 25.016728,118.48253 1.52e-4,-50.749197 97.4852,-7.9e-5 97.48521,-7.9e-5 -97.45971,0.02553 -97.459699,0.02553 -0.02565,50.723755 -0.02565,50.72374 z m 105.890842,16.75586 c 0.0359,-0.13739 0.082,-0.18344 0.10735,-0.10735 0.0244,0.0733 -0.004,0.18158 -0.0629,0.24062 -0.0754,0.0754 -0.0886,0.0357 -0.0444,-0.13327 z m 12.15105,-0.44906 c 4.5e-4,-0.39116 0.0188,-0.53873 0.0408,-0.32793 0.022,0.2108 0.0216,0.53084 -8.2e-4,0.7112 -0.0224,0.18036 -0.0404,0.008 -0.04,-0.38327 z m 8.54219,-0.9144 c 1.3e-4,-0.89408 0.0157,-1.24624 0.0345,-0.78257 0.0189,0.46366 0.0188,1.19518 -2.3e-4,1.6256 -0.019,0.43041 -0.0344,0.0511 -0.0343,-0.84303 z m 3.8608,0 c 1.3e-4,-0.89408 0.0157,-1.24624 0.0345,-0.78257 0.0189,0.46366 0.0188,1.19518 -2.3e-4,1.6256 -0.019,0.43041 -0.0344,0.0511 -0.0343,-0.84303 z m -27.79089,1.2954 c -0.12637,-0.16114 -0.12278,-0.16473 0.0384,-0.0384 0.0978,0.0767 0.1778,0.15671 0.1778,0.1778 0,0.0836 -0.0834,0.0298 -0.21616,-0.13944 z m 16.19885,-0.381 c 5.7e-4,-0.33528 0.0195,-0.46019 0.0421,-0.27758 0.0226,0.18261 0.0221,0.45693 -10e-4,0.6096 -0.0232,0.15267 -0.0417,0.003 -0.0411,-0.33202 z m 3.93091,0.52044 c 0,-0.0211 0.08,-0.1011 0.1778,-0.1778 0.16115,-0.12637 0.16474,-0.12278 0.0384,0.0384 -0.13272,0.16924 -0.21616,0.22306 -0.21616,0.13944 z m 8.11504,-0.13944 c -0.12637,-0.16114 -0.12278,-0.16473 0.0384,-0.0384 0.0978,0.0767 0.1778,0.15671 0.1778,0.1778 0,0.0836 -0.0834,0.0298 -0.21616,-0.13944 z m 4.52426,-1.3462 c 0,-0.86614 0.0156,-1.22047 0.0346,-0.7874 0.019,0.43307 0.019,1.14173 0,1.5748 -0.019,0.43307 -0.0346,0.0787 -0.0346,-0.7874 z m -38.05226,1.2446 c -0.12637,-0.16114 -0.12278,-0.16473 0.0384,-0.0384 0.0978,0.0767 0.1778,0.15671 0.1778,0.1778 0,0.0836 -0.0834,0.0298 -0.21616,-0.13944 z m -1.7885,-0.19741 c 0.0988,-0.0258 0.23601,-0.0241 0.3048,0.004 0.0688,0.0278 -0.0121,0.0489 -0.17974,0.0468 -0.16764,-0.002 -0.22392,-0.0249 -0.12506,-0.0506 z m 10.0584,0 c 0.0988,-0.0258 0.23601,-0.0241 0.3048,0.004 0.0688,0.0278 -0.0121,0.0489 -0.17974,0.0468 -0.16764,-0.002 -0.22392,-0.0249 -0.12506,-0.0506 z m 1.34498,-0.03 c -0.0356,-0.0576 0.005,-0.0746 0.0956,-0.0399 0.17601,0.0675 0.20821,0.14036 0.0621,0.14036 -0.0526,0 -0.12354,-0.0452 -0.15768,-0.10043 z m 8.5344,0 c -0.0356,-0.0576 0.005,-0.0746 0.0956,-0.0399 0.17601,0.0675 0.20821,0.14036 0.0621,0.14036 -0.0526,0 -0.12354,-0.0452 -0.15768,-0.10043 z m 6.4008,0 c -0.0356,-0.0576 0.005,-0.0746 0.0956,-0.0399 0.17601,0.0675 0.20821,0.14036 0.0621,0.14036 -0.0526,0 -0.12354,-0.0452 -0.15768,-0.10043 z m 0.35488,0.0605 c 0,-0.022 0.071,-0.0672 0.15768,-0.10043 0.0904,-0.0347 0.1312,-0.0177 0.0956,0.0399 -0.0597,0.0965 -0.25328,0.14279 -0.25328,0.0605 z m 1.12562,-0.12093 c 0.005,-0.11836 0.0289,-0.14244 0.0614,-0.0614 0.0293,0.0734 0.0257,0.16098 -0.008,0.19474 -0.0338,0.0338 -0.0578,-0.0263 -0.0534,-0.13335 z m 10.55635,0.006 c -0.0707,-0.0852 -0.10885,-0.17453 -0.0848,-0.19858 0.0241,-0.0241 0.0995,0.0456 0.16774,0.15485 0.14751,0.2362 0.0983,0.26213 -0.0829,0.0437 z m 0.62183,-0.0183 c 0.074,-0.12319 0.15638,-0.20211 0.18311,-0.17538 0.0267,0.0267 -0.0338,0.12752 -0.13451,0.22398 -0.17495,0.16757 -0.17711,0.1654 -0.0486,-0.0486 z m -34.7219,-0.74122 c 0,-0.47498 0.0175,-0.66929 0.0389,-0.4318 0.0214,0.23749 0.0214,0.62611 0,0.8636 -0.0214,0.23749 -0.0389,0.0432 -0.0389,-0.4318 z m -2.04188,0.254 c 0.001,-0.22352 0.0219,-0.30299 0.0462,-0.17661 0.0243,0.12638 0.0234,0.30926 -0.002,0.4064 -0.0254,0.0971 -0.0453,-0.006 -0.0442,-0.22979 z m 23.26641,0 c 0.001,-0.22352 0.0219,-0.30299 0.0462,-0.17661 0.0243,0.12638 0.0234,0.30926 -0.002,0.4064 -0.0254,0.0971 -0.0453,-0.006 -0.0442,-0.22979 z m 11.68986,-0.2032 c 5.7e-4,-0.33528 0.0195,-0.46019 0.0421,-0.27758 0.0226,0.18261 0.0221,0.45693 -0.001,0.6096 -0.0232,0.15267 -0.0417,0.003 -0.0411,-0.33202 z m 0.38294,0.29634 c 0.005,-0.11836 0.0289,-0.14244 0.0614,-0.0614 0.0293,0.0733 0.0257,0.16098 -0.008,0.19474 -0.0338,0.0338 -0.0578,-0.0263 -0.0534,-0.13335 z m -37.99039,-0.14394 c 0,-0.1397 0.0231,-0.19685 0.0512,-0.127 0.0282,0.0699 0.0282,0.18415 0,0.254 -0.0282,0.0699 -0.0512,0.0127 -0.0512,-0.127 z m 17.78001,0 c 0,-0.1397 0.0231,-0.19685 0.0512,-0.127 0.0282,0.0699 0.0282,0.18415 0,0.254 -0.0282,0.0699 -0.0512,0.0127 -0.0512,-0.127 z m -19.31203,-0.16086 c 0.005,-0.11836 0.029,-0.14244 0.0614,-0.0614 0.0293,0.0733 0.0257,0.16098 -0.008,0.19474 -0.0338,0.0338 -0.0578,-0.0263 -0.0534,-0.13335 z m 30.45293,-0.0101 c 0.0734,-0.0293 0.16098,-0.0257 0.19474,0.008 0.0338,0.0338 -0.0262,0.0578 -0.13335,0.0534 -0.11836,-0.005 -0.14244,-0.029 -0.0614,-0.0614 z m -30.28127,-0.35411 c 0.059,-0.059 0.16731,-0.0874 0.24061,-0.0629 0.0761,0.0254 0.03,0.0714 -0.10734,0.10734 -0.169,0.0442 -0.20867,0.031 -0.13327,-0.0444 z m 21.73883,0.005 c 0.0689,-0.0694 0.1509,-0.10066 0.18218,-0.0694 0.0313,0.0313 -0.0251,0.0881 -0.1253,0.12625 -0.1448,0.0551 -0.15648,0.0435 -0.0569,-0.0569 z m -24.48272,-0.0593 c 0.12638,-0.0243 0.30926,-0.0234 0.4064,0.002 0.0971,0.0254 -0.006,0.0453 -0.22979,0.0442 -0.22352,-10e-4 -0.30299,-0.0219 -0.17661,-0.0462 z m 14.62297,0.006 c 0.12229,-0.0266 0.24108,-0.12549 0.26398,-0.21984 0.0291,-0.11973 0.0386,-0.11017 0.0316,0.0316 -0.007,0.1415 -0.0871,0.20826 -0.26399,0.21985 -0.21153,0.0139 -0.21682,0.009 -0.0316,-0.0316 z m 9.32804,-0.239 c 0.10114,-0.11176 0.20676,-0.2032 0.2347,-0.2032 0.0279,0 -0.032,0.0914 -0.1331,0.2032 -0.10114,0.11176 -0.20675,0.2032 -0.23469,0.2032 -0.0279,0 0.0319,-0.0914 0.13309,-0.2032 z m 1.61595,-0.0254 -0.19355,-0.2286 0.2286,0.19355 c 0.21483,0.18189 0.27486,0.26365 0.19355,0.26365 -0.0193,0 -0.12215,-0.10287 -0.2286,-0.2286 z m 6.2992,0 -0.19355,-0.2286 0.2286,0.19355 c 0.21483,0.18189 0.27486,0.26365 0.19355,0.26365 -0.0193,0 -0.12215,-0.10287 -0.2286,-0.2286 z m -30.40351,-0.0762 c 0,-0.1397 0.0231,-0.19685 0.0512,-0.127 0.0282,0.0699 0.0282,0.18415 0,0.254 -0.0282,0.0699 -0.0512,0.0127 -0.0512,-0.127 z m 10.04236,0.16484 c 0,-0.0211 0.08,-0.1011 0.1778,-0.1778 0.16115,-0.12637 0.16474,-0.12278 0.0384,0.0384 -0.13272,0.16924 -0.21616,0.22306 -0.21616,0.13944 z m 7.91184,-0.13944 c -0.12637,-0.16114 -0.12278,-0.16473 0.0384,-0.0384 0.0978,0.0767 0.1778,0.15671 0.1778,0.1778 0,0.0836 -0.0834,0.0298 -0.21616,-0.13944 z m 17.89456,0.13944 c 0,-0.0211 0.08,-0.1011 0.1778,-0.1778 0.16115,-0.12637 0.16474,-0.12278 0.0384,0.0384 -0.13272,0.16924 -0.21616,0.22306 -0.21616,0.13944 z m -37.40785,-0.64064 c 0.0733,-0.0293 0.16098,-0.0257 0.19474,0.008 0.0338,0.0338 -0.0263,0.0578 -0.13335,0.0534 -0.11836,-0.005 -0.14244,-0.029 -0.0614,-0.0614 z m -0.59055,-2.6738 v -0.6096 h 22.49547 22.49547 l 0.0679,0.40212 c 0.0374,0.22116 0.0383,0.49548 0.002,0.6096 l -0.0659,0.20748 h -22.49755 -22.49756 z m 13.30952,-5.91322 c -0.0279,-1.82733 -0.0158,-3.28743 0.0269,-3.24466 0.0427,0.0428 0.0655,1.53785 0.0507,3.32242 l -0.0269,3.24466 z m 29.81968,2.25562 c 0.21827,-0.22352 0.4197,-0.4064 0.44764,-0.4064 0.0279,0 -0.12777,0.18288 -0.34604,0.4064 -0.21826,0.22352 -0.4197,0.4064 -0.44764,0.4064 -0.0279,0 0.12778,-0.18288 0.34604,-0.4064 z m -19.57096,0.127 c -0.12637,-0.16114 -0.12278,-0.16473 0.0384,-0.0384 0.0978,0.0767 0.1778,0.15671 0.1778,0.1778 0,0.0836 -0.0834,0.0298 -0.21616,-0.13944 z m 13.41647,-0.1016 -0.24631,-0.2794 0.2794,0.24631 c 0.15367,0.13547 0.2794,0.2612 0.2794,0.2794 0,0.0797 -0.0823,0.0148 -0.31249,-0.24631 z m -33.01231,-0.77496 c 0,-0.0211 0.08,-0.1011 0.1778,-0.1778 0.16115,-0.12637 0.16474,-0.12278 0.0384,0.0384 -0.13272,0.16924 -0.21616,0.22306 -0.21616,0.13944 z m 2.21615,-0.64064 c 0.0734,-0.0293 0.16098,-0.0257 0.19474,0.008 0.0338,0.0338 -0.0262,0.0578 -0.13335,0.0534 -0.11836,-0.005 -0.14244,-0.0289 -0.0614,-0.0614 z m 16.38467,-0.39626 c 0.005,-0.11836 0.0289,-0.14244 0.0614,-0.0614 0.0293,0.0734 0.0257,0.16098 -0.008,0.19474 -0.0338,0.0338 -0.0578,-0.0262 -0.0534,-0.13335 z m 5.47838,-0.23554 c 0,-0.1055 0.19327,-0.25823 0.25052,-0.19797 0.0186,0.0196 -0.0302,0.0945 -0.10836,0.16658 -0.0782,0.0721 -0.14216,0.0862 -0.14216,0.0314 z m 16.26403,-0.0693 c 0.005,-0.11836 0.0289,-0.14244 0.0614,-0.0614 0.0293,0.0734 0.0257,0.16098 -0.008,0.19474 -0.0338,0.0338 -0.0578,-0.0262 -0.0534,-0.13335 z m -42.94401,-0.19474 c 0.01,-0.19787 0.0819,-0.20326 2.75318,-0.20565 l 2.7432,-0.002 -2.71094,0.0295 c -2.47408,0.0269 -2.71464,0.0449 -2.75319,0.20565 -0.0315,0.13125 -0.0397,0.12436 -0.0323,-0.027 z m 27.47373,0.1846 c 0.0734,-0.0293 0.16098,-0.0257 0.19474,0.008 0.0338,0.0338 -0.0263,0.0578 -0.13335,0.0534 -0.11836,-0.005 -0.14244,-0.0289 -0.0614,-0.0614 z m 9.29614,-0.9974 c 5.7e-4,-0.33528 0.0195,-0.46019 0.0421,-0.27758 0.0226,0.18261 0.0221,0.45693 -0.001,0.6096 -0.0232,0.15267 -0.0417,0.003 -0.0411,-0.33202 z m -39.11843,0 c 7.6e-4,-0.2794 0.0205,-0.38164 0.0439,-0.2272 0.0233,0.15444 0.0227,0.38304 -0.001,0.508 -0.0241,0.12496 -0.0432,-0.001 -0.0425,-0.2808 z m 36.77372,-0.1524 c 0,-0.19558 0.0209,-0.27559 0.0465,-0.1778 0.0256,0.0978 0.0256,0.25781 0,0.3556 -0.0256,0.0978 -0.0465,0.0178 -0.0465,-0.1778 z M 122.1037,122.3861 c 0.005,-0.11836 0.0289,-0.14244 0.0614,-0.0614 0.0293,0.0734 0.0257,0.16098 -0.008,0.19474 -0.0338,0.0338 -0.0578,-0.0263 -0.0534,-0.13335 z m 37.59201,-0.1016 c 0.005,-0.11836 0.0289,-0.14244 0.0614,-0.0614 0.0293,0.0734 0.0257,0.16098 -0.008,0.19474 -0.0338,0.0338 -0.0578,-0.0263 -0.0534,-0.13335 z m -16.319,-0.2523 c -0.0368,-0.0596 -0.0452,-0.13015 -0.0186,-0.15678 0.0266,-0.0266 0.0755,0.0221 0.10858,0.10836 0.0687,0.17903 0.0102,0.21052 -0.09,0.0484 z m -23.93559,-0.88224 c -0.12637,-0.16114 -0.12278,-0.16473 0.0384,-0.0384 0.0978,0.0767 0.1778,0.15671 0.1778,0.1778 0,0.0836 -0.0834,0.0298 -0.21616,-0.13944 z m 8.07599,-1.0414 c 0,-0.53086 0.0171,-0.74803 0.038,-0.4826 0.0209,0.26543 0.0209,0.69977 0,0.9652 -0.0209,0.26543 -0.038,0.0483 -0.038,-0.4826 z m 4.10357,0.8427 c 0.12573,-0.0242 0.33147,-0.0242 0.4572,0 0.12573,0.0242 0.0229,0.044 -0.2286,0.044 -0.25146,0 -0.35433,-0.0198 -0.2286,-0.044 z m 23.725,-0.1028 c 0.15444,-0.0234 0.38304,-0.0227 0.508,10e-4 0.12496,0.0241 -0.001,0.0432 -0.2808,0.0425 -0.2794,-7.6e-4 -0.38164,-0.0205 -0.2272,-0.0438 z m -34.22485,-0.6637 -0.19355,-0.2286 0.2286,0.19355 c 0.21483,0.18189 0.27486,0.26365 0.19355,0.26365 -0.0193,0 -0.12215,-0.10287 -0.2286,-0.2286 z m 7.61219,-1.651 c 4.5e-4,-0.39116 0.0188,-0.53873 0.0408,-0.32793 0.022,0.2108 0.0216,0.53084 -8.2e-4,0.7112 -0.0224,0.18036 -0.0404,0.008 -0.04,-0.38327 z m 4.24188,-1.43086 c 0.005,-0.11836 0.029,-0.14244 0.0614,-0.0614 0.0293,0.0734 0.0257,0.16098 -0.008,0.19474 -0.0338,0.0338 -0.0578,-0.0263 -0.0534,-0.13335 z m -3.71642,-0.55034 c 0.10114,-0.11176 0.20676,-0.2032 0.2347,-0.2032 0.0279,0 -0.032,0.0914 -0.1331,0.2032 -0.10114,0.11176 -0.20675,0.2032 -0.23469,0.2032 -0.0279,0 0.0319,-0.0914 0.13309,-0.2032 z m 2.87655,-0.679 c 0.0734,-0.0294 0.16098,-0.0257 0.19474,0.008 0.0338,0.0338 -0.0263,0.0578 -0.13335,0.0534 -0.11836,-0.005 -0.14244,-0.029 -0.0614,-0.0614 z m -31.75613,-1.5054 c 0.001,-0.22352 0.0219,-0.30299 0.0462,-0.17661 0.0243,0.12638 0.0234,0.30926 -0.002,0.4064 -0.0254,0.0971 -0.0453,-0.006 -0.0442,-0.22979 z m -8.179018,-0.5289 c 0.12573,-0.0242 0.33147,-0.0242 0.4572,0 0.12573,0.0242 0.02286,0.044 -0.2286,0.044 -0.25146,0 -0.35433,-0.0198 -0.2286,-0.044 z m 5.132734,0.001 c 0.09885,-0.0258 0.236013,-0.0241 0.3048,0.004 0.06879,0.0278 -0.01209,0.0489 -0.179734,0.0468 -0.16764,-0.002 -0.22392,-0.0248 -0.125066,-0.0506 z m 3.657604,0 c 0.0989,-0.0258 0.23601,-0.0241 0.3048,0.004 0.0688,0.0278 -0.0121,0.0489 -0.17974,0.0468 -0.16764,-0.002 -0.22392,-0.0248 -0.12506,-0.0506 z m 2.79325,-0.001 c 0.12638,-0.0243 0.30926,-0.0234 0.4064,0.002 0.0971,0.0254 -0.006,0.0453 -0.22979,0.0442 -0.22352,-10e-4 -0.30299,-0.0219 -0.17661,-0.0462 z m -9.181589,-1.35055 c 0,-0.75438 0.01599,-1.06299 0.03554,-0.6858 0.01955,0.37719 0.01955,0.99441 0,1.3716 -0.01955,0.37719 -0.03554,0.0686 -0.03554,-0.6858 z m 7.072199,1.18084 c 0,-0.0211 0.08,-0.1011 0.1778,-0.1778 0.16115,-0.12637 0.16474,-0.12278 0.0384,0.0384 -0.13273,0.16924 -0.21616,0.22306 -0.21616,0.13944 z m -2.704776,-1.38404 c 0,-0.64262 0.0165,-0.90551 0.03666,-0.5842 0.02016,0.32131 0.02016,0.84709 0,1.1684 -0.02016,0.32131 -0.03666,0.0584 -0.03666,-0.5842 z m -6.356672,0.845 c 0.07334,-0.0294 0.160972,-0.0257 0.194733,0.008 0.03376,0.0338 -0.02625,0.0578 -0.13335,0.0534 -0.118358,-0.005 -0.142433,-0.0289 -0.06138,-0.0614 z m 3.916476,-1.0482 c 0,-0.53086 0.01713,-0.74803 0.03805,-0.4826 0.02093,0.26543 0.02093,0.69977 0,0.9652 -0.02093,0.26543 -0.03805,0.0483 -0.03805,-0.4826 z m 3.832192,0.65194 c 0.005,-0.11836 0.0289,-0.14244 0.0614,-0.0614 0.0293,0.0734 0.0257,0.16098 -0.008,0.19474 -0.0338,0.0338 -0.0578,-0.0262 -0.0534,-0.13335 z m -7.213597,-0.1016 c 0.0049,-0.11836 0.02895,-0.14244 0.06138,-0.0614 0.02935,0.0734 0.02574,0.16098 -0.008,0.19474 -0.03376,0.0338 -0.05777,-0.0263 -0.05336,-0.13335 z m 27.668147,-0.0456 c -2.57807,-0.16675 -5.72076,-0.97174 -7.97765,-2.04344 -0.60814,-0.28878 -1.10572,-0.53532 -1.10572,-0.54785 0,-0.0255 0.65392,-1.82654 0.76407,-2.10443 0.0657,-0.16587 0.39676,-0.1778 4.9364,-0.1778 2.67626,0 4.86593,0.0121 4.86593,0.0268 0,0.0444 0.34068,0.93848 1.10797,2.90764 0.40025,1.02723 0.70155,1.89387 0.66954,1.92588 -0.0973,0.0973 -1.85061,0.10435 -3.26054,0.0132 z m -28.465397,-0.40312 c 0,-0.19558 0.02091,-0.27559 0.04646,-0.1778 0.02556,0.0978 0.02556,0.25781 0,0.3556 -0.02555,0.0978 -0.04646,0.0178 -0.04646,-0.1778 z m 35.282617,-3.9905 c -0.78222,-1.96829 -1.56587,-3.95589 -1.74146,-4.4169 l -0.31924,-0.8382 h 4.61165 4.61166 v -2.03111 -2.031122 l -5.45519,-0.02628 -5.45519,-0.02628 -1.09801,-2.740657 c -0.6039,-1.507361 -1.09801,-2.798951 -1.09801,-2.8702 0,-0.103799 1.46382,-0.129543 7.366,-0.129543 h 7.366 v -1.9812 c 0,-1.08966 0.0282,-1.9812 0.0626,-1.9812 0.15199,0 1.50686,1.299153 2.14866,2.060302 1.66924,1.979663 2.50566,3.839023 2.82249,6.274435 0.14114,1.084873 0.14203,1.339729 0.008,2.358969 -0.61207,4.662246 -3.95923,8.599366 -9.30918,10.949956 -1.042,0.45782 -2.65722,1.01481 -2.93016,1.01043 -0.12633,-0.002 -0.52546,-0.90059 -1.59085,-3.5814 z m -27.27979,3.24094 c 0,-0.0211 0.08,-0.1011 0.1778,-0.1778 0.16115,-0.12637 0.16474,-0.12278 0.0384,0.0384 -0.13273,0.16924 -0.21616,0.22306 -0.21616,0.13944 z m -4.978398,-0.1016 c 0,-0.0211 0.08001,-0.1011 0.1778,-0.1778 0.161143,-0.12637 0.164737,-0.12278 0.03836,0.0384 -0.132728,0.16924 -0.21616,0.22306 -0.21616,0.13944 z m 12.072578,-4.54734 c -0.44225,-0.42062 -1.36015,-1.58943 -1.78449,-2.2723 -2.33125,-3.75151 -2.28369,-8.211501 0.12747,-11.954263 2.6825,-4.163967 8.12947,-7.148359 14.26508,-7.815842 1.38831,-0.151032 5.13336,-0.06524 6.45976,0.147988 3.27415,0.526329 6.30443,1.667077 8.75356,3.295272 0.99166,0.659255 1.17359,0.831942 0.87904,0.834351 -0.10109,8.27e-4 -4.51936,1.57e-4 -9.81839,-0.0015 -10.30835,-0.0032 -11.50156,0.02707 -11.58232,0.293814 -0.0272,0.08986 -0.3306,0.872032 -0.67422,1.738172 -0.34363,0.86614 -0.6833,1.73482 -0.75483,1.9304 -0.11174,0.305496 -1.2285,3.171679 -3.12735,8.026398 -0.27321,0.6985 -0.74388,1.91008 -1.04593,2.6924 -0.30205,0.78232 -0.72664,1.87344 -0.94354,2.4247 l -0.39437,1.0023 z m 6.66962,-3.3137 c 0.0776,-0.19831 0.70106,-1.90292 1.23565,-3.3782 0.19237,-0.530857 0.41276,-1.125217 0.48977,-1.320797 0.24625,-0.625425 1.17318,-3.208564 1.17318,-3.269367 0,-0.03224 0.073,-0.233427 0.16231,-0.447084 0.19752,-0.472709 0.20211,-0.466232 0.73984,1.042663 0.33926,0.95197 1.34641,3.666287 2.36812,6.382185 0.16817,0.44704 0.32945,0.89281 0.3584,0.9906 0.0494,0.16679 -0.15337,0.1778 -3.27209,0.1778 -3.12516,0 -3.32054,-0.0107 -3.25518,-0.1778 z"
           id="path2" /><path
           style="display:inline;fill:#2e2a27"
           d="m 122.42578,169.30793 97.5105,-0.0255 0.0256,-50.82535 0.0256,-50.825347 0.0253,50.876197 0.0253,50.8762 -97.56141,-0.0253 -97.5614,-0.0254 z m -7.2389,-35.42656 v -1.58124 h 0.87028 c 0.47866,0 0.95824,0.0471 1.06575,0.10461 0.31235,0.16717 0.47613,0.60468 0.39587,1.0575 -0.0983,0.55476 -0.39518,0.76829 -1.06808,0.76829 h -0.54248 l -0.0305,0.5842 c -0.0301,0.57757 -0.0342,0.58456 -0.36067,0.61604 l -0.3302,0.0318 z m 1.53068,-0.26401 c 0.23033,-0.12327 0.25749,-0.42895 0.0532,-0.5985 -0.0788,-0.0654 -0.30744,-0.14559 -0.508,-0.17814 l -0.36467,-0.0592 v 0.47049 c 0,0.45728 0.009,0.47049 0.31148,0.47049 0.17132,0 0.39992,-0.0473 0.508,-0.10517 z m 1.31412,0.66397 v -1.1684 h 0.3048 c 0.16934,0 0.3048,0.0542 0.3048,0.12192 0,0.0948 0.0271,0.0948 0.12192,0 0.13901,-0.13901 0.55136,-0.16388 0.62919,-0.0379 0.0285,0.0462 0.026,0.1829 -0.006,0.30383 -0.0445,0.17021 -0.11034,0.20659 -0.29155,0.16111 -0.33178,-0.0833 -0.45396,0.20472 -0.45396,1.07001 v 0.71788 h -0.3048 -0.3048 z m 2.10948,1.00936 c -0.53134,-0.2883 -0.7278,-0.99822 -0.43366,-1.56704 0.34823,-0.6734 1.21931,-0.83524 1.78325,-0.33132 1.03239,0.92252 -0.13131,2.55939 -1.34959,1.89836 z m 0.9464,-0.51085 c 0.0739,-0.089 0.13436,-0.31337 0.13436,-0.49851 0,-0.41274 -0.19048,-0.6604 -0.50794,-0.6604 -0.48084,0 -0.68695,0.75697 -0.32489,1.19323 0.14797,0.17829 0.53792,0.15913 0.69847,-0.0343 z m 1.46626,0.39049 c -0.31911,-0.34123 -0.39852,-0.62305 -0.32662,-1.15912 0.0979,-0.72975 0.71319,-1.10585 1.29756,-0.7931 0.1822,0.0975 0.19652,0.0679 0.19652,-0.4064 0,-0.50069 0.006,-0.51158 0.3048,-0.51158 h 0.3048 v 1.5748 1.5748 h -0.254 c -0.16215,0 -0.254,-0.0572 -0.254,-0.15816 0,-0.14315 -0.0214,-0.14315 -0.2258,0 -0.34695,0.24301 -0.74599,0.19664 -1.04326,-0.12124 z m 1.04554,-0.35052 c 0.0671,-0.067 0.12192,-0.30937 0.12192,-0.53848 0,-0.46953 -0.13698,-0.6604 -0.47394,-0.6604 -0.26174,0 -0.44046,0.26796 -0.44046,0.6604 0,0.56297 0.45728,0.87369 0.79248,0.53848 z m 1.54432,0.42672 c -0.17468,-0.17468 -0.2032,-0.33866 -0.2032,-1.1684 v -0.9652 h 0.30085 0.30084 l 0.0294,0.889 0.0294,0.889 h 0.3048 0.3048 l 0.0508,-0.8636 0.0508,-0.8636 h 0.3048 0.3048 v 1.1176 1.1176 l -0.2794,0.0322 c -0.20324,0.0234 -0.2794,-0.0128 -0.2794,-0.13276 0,-0.15012 -0.0203,-0.15073 -0.2258,-0.007 -0.31117,0.21795 -0.75032,0.19804 -0.9934,-0.045 z m 2.76523,0.0446 c -0.30925,-0.21661 -0.53003,-0.67445 -0.53003,-1.09916 0,-0.26171 0.0888,-0.44755 0.3422,-0.71624 0.29294,-0.31061 0.40739,-0.36284 0.79509,-0.36284 0.4831,0 0.89471,0.29515 0.89471,0.64155 0,0.21917 -0.4898,0.23529 -0.57286,0.0188 -0.0657,-0.17122 -0.599,-0.20959 -0.69752,-0.0502 -0.11296,0.18278 -0.0777,0.91087 0.0516,1.06673 0.17968,0.2165 0.47094,0.18766 0.64728,-0.0641 0.20364,-0.29074 0.68256,-0.19791 0.60037,0.11637 -0.13821,0.52851 -1.03982,0.79295 -1.53088,0.44901 z m 2.17213,-0.0615 c -0.10975,-0.1567 -0.16216,-0.45405 -0.16216,-0.92011 0,-0.54435 -0.0319,-0.6886 -0.1524,-0.6886 -0.0948,0 -0.1524,-0.0959 -0.1524,-0.254 0,-0.15804 0.0576,-0.254 0.1524,-0.254 0.0838,0 0.1524,-0.0862 0.1524,-0.19151 0,-0.16227 0.38186,-0.51969 0.55523,-0.51969 0.0299,0 0.0544,0.16002 0.0544,0.3556 0,0.28787 0.0387,0.3556 0.2032,0.3556 0.14902,0 0.2032,0.0677 0.2032,0.254 0,0.18627 -0.0542,0.254 -0.2032,0.254 -0.18236,0 -0.2032,0.0677 -0.2032,0.6604 0,0.60007 0.0192,0.6604 0.21027,0.6604 0.15994,0 0.2025,0.0547 0.1778,0.2286 -0.0478,0.33685 -0.61301,0.37696 -0.83551,0.0593 z m 1.64802,0.0456 c -0.34684,-0.21515 -0.50597,-0.51395 -0.51902,-0.97458 -0.0197,-0.69655 0.47586,-1.1877 1.19848,-1.1877 0.29155,0 0.4527,0.0772 0.72092,0.34544 0.29486,0.29486 0.34544,0.41537 0.34544,0.82296 0,0.4076 -0.0506,0.52811 -0.34544,0.82296 -0.27497,0.27497 -0.42523,0.34489 -0.7366,0.34274 -0.21513,-10e-4 -0.51384,-0.0788 -0.66378,-0.17182 z m 0.97806,-0.55928 c 0.3229,-0.46101 0.0839,-1.095 -0.41281,-1.095 -0.26589,0 -0.44503,0.26583 -0.44503,0.6604 0,0.6293 0.53251,0.89908 0.85784,0.4346 z m 1.40276,0.53172 c -0.39923,-0.24342 -0.42537,-0.48136 -0.0629,-0.57234 0.19249,-0.0483 0.29345,-0.0204 0.36065,0.0997 0.0584,0.10436 0.22449,0.16676 0.44387,0.16676 0.53272,0 0.43204,-0.24156 -0.18285,-0.43872 -0.68739,-0.2204 -0.7575,-0.27036 -0.83987,-0.59858 -0.17502,-0.69732 1.13373,-1.11693 1.6777,-0.5379 0.13103,0.13948 0.21319,0.27865 0.18257,0.30927 -0.10625,0.10625 -0.5886,0.15178 -0.5886,0.0556 0,-0.13402 -0.34269,-0.2301 -0.54448,-0.15267 -0.29344,0.1126 -0.18082,0.22692 0.38585,0.39165 0.64139,0.18646 0.86983,0.37804 0.86983,0.72949 0,0.64997 -1.00411,0.97319 -1.7018,0.54781 z m 3.60841,-0.0944 c -0.30073,-0.2687 -0.33181,-0.35037 -0.33181,-0.87194 0,-0.52156 0.0311,-0.60324 0.33181,-0.87193 0.4713,-0.42111 1.03907,-0.41442 1.47083,0.0173 0.25263,0.25263 0.28577,0.33155 0.16999,0.40484 -0.22205,0.14055 -0.47996,0.1109 -0.57929,-0.0666 -0.058,-0.10357 -0.19414,-0.14875 -0.38282,-0.127 -0.2286,0.0264 -0.31275,0.10359 -0.38355,0.35201 -0.18829,0.66062 0.42581,1.24543 0.77872,0.74159 0.11854,-0.16925 0.21706,-0.20623 0.41621,-0.15625 0.33707,0.0846 0.32909,0.21226 -0.0361,0.57743 -0.41432,0.41432 -0.99066,0.41452 -1.45401,5.2e-4 z m 2.55408,0.12735 c -0.38195,-0.23712 -0.51522,-0.50478 -0.51522,-1.03479 0,-0.40716 0.0474,-0.51176 0.36257,-0.80062 0.51584,-0.47273 1.0629,-0.46807 1.54412,0.0132 0.29486,0.29486 0.34544,0.41537 0.34544,0.82296 0,0.4076 -0.0506,0.52811 -0.34544,0.82296 -0.27497,0.27497 -0.42523,0.34489 -0.7366,0.34274 -0.21513,-0.001 -0.50983,-0.0764 -0.65487,-0.16641 z m 0.94151,-0.50703 c 0.39118,-0.35401 0.1243,-1.15266 -0.38517,-1.15266 -0.26589,0 -0.44503,0.26583 -0.44503,0.6604 0,0.60278 0.4278,0.85643 0.8302,0.49226 z m 1.26954,0.60841 c -0.0373,-0.0373 -0.0677,-0.56303 -0.0677,-1.1684 v -1.10067 h 0.29634 c 0.16298,0 0.31376,0.0523 0.33505,0.11617 0.0291,0.0872 0.0929,0.0872 0.25579,0 0.38037,-0.20357 0.80544,-0.14138 1.03585,0.15153 0.17706,0.22511 0.21057,0.41103 0.21057,1.1684 v 0.9007 h -0.3048 -0.3048 v -0.74258 c 0,-0.84184 -0.13445,-1.12431 -0.50952,-1.07047 -0.29459,0.0423 -0.38074,0.29938 -0.39475,1.17805 -0.009,0.59461 -0.0252,0.635 -0.24719,0.635 -0.13039,0 -0.26755,-0.0305 -0.3048,-0.0677 z m 4.31376,-0.004 c -0.36879,-0.14646 -0.56216,-0.48669 -0.6038,-1.06237 -0.0393,-0.54283 -0.02,-0.60743 0.26657,-0.89401 0.25031,-0.25031 0.3935,-0.3089 0.75491,-0.3089 0.36018,0 0.50068,0.0571 0.73011,0.29655 0.15626,0.1631 0.25356,0.34598 0.21622,0.4064 -0.10103,0.16346 -0.53334,0.13284 -0.60065,-0.0426 -0.07,-0.18243 -0.48294,-0.20167 -0.65414,-0.0305 -0.14967,0.14968 -0.15946,0.73568 -0.0167,1.00236 0.14338,0.26792 0.60757,0.26335 0.67819,-0.007 0.0554,-0.212 0.28717,-0.2621 0.52252,-0.11296 0.17202,0.109 0.0195,0.43345 -0.31328,0.66655 -0.22017,0.15422 -0.70181,0.19653 -0.97991,0.0861 z m 1.9177,-0.13168 c -0.44209,-0.44209 -0.20178,-0.94292 0.55847,-1.16393 0.35095,-0.10202 0.55913,-0.21823 0.55913,-0.31211 0,-0.1828 -0.42947,-0.20032 -0.70425,-0.0287 -0.13762,0.0859 -0.26078,0.0908 -0.42651,0.0169 l -0.23301,-0.10397 0.27087,-0.27087 c 0.48432,-0.48432 1.68173,-0.30033 1.70856,0.26253 0.003,0.0699 0.0174,0.50419 0.0312,0.9652 0.0245,0.81807 0.0194,0.8382 -0.21244,0.8382 -0.13067,0 -0.26365,-0.0679 -0.2955,-0.15094 -0.0512,-0.13352 -0.0828,-0.13352 -0.27342,0 -0.30175,0.21135 -0.74293,0.1879 -0.98309,-0.0523 z m 0.92108,-0.30837 c 0.10829,-0.058 0.19652,-0.21185 0.19652,-0.34277 0,-0.21408 -0.0326,-0.23092 -0.32958,-0.17019 -0.35322,0.0722 -0.50524,0.37571 -0.26461,0.5282 0.17295,0.10961 0.16372,0.10996 0.39767,-0.0152 z m 1.38186,0.44384 c -0.0373,-0.0373 -0.0677,-0.74591 -0.0677,-1.5748 v -1.50707 h 0.3048 0.3048 v 1.5748 1.5748 h -0.23706 c -0.13039,0 -0.26755,-0.0305 -0.3048,-0.0677 z m 1.19779,-0.0597 c -0.0298,-0.0776 -0.0409,-0.59499 -0.0248,-1.14981 l 0.0293,-1.00877 h 0.3048 0.3048 v 1.1176 1.1176 l -0.27997,0.0322 c -0.16958,0.0195 -0.30132,-0.0234 -0.3341,-0.10883 z m 1.36604,-0.18812 c -0.25092,-0.26861 -0.29477,-0.39823 -0.29477,-0.87142 0,-0.47891 0.0411,-0.59698 0.29699,-0.85285 0.31065,-0.31066 0.67998,-0.3794 1.03049,-0.19181 0.1822,0.0975 0.19652,0.0679 0.19652,-0.4064 0,-0.50069 0.006,-0.51158 0.3048,-0.51158 h 0.3048 v 1.5748 1.5748 h -0.248 c -0.1364,0 -0.27634,-0.0458 -0.31097,-0.10187 -0.0421,-0.0681 -0.12607,-0.0681 -0.25331,0 -0.35629,0.19068 -0.71944,0.11509 -1.02655,-0.21367 z m 1.12406,-0.38898 c 0.14272,-0.26668 0.13293,-0.85268 -0.0168,-1.00236 -0.067,-0.067 -0.21793,-0.12192 -0.33528,-0.12192 -0.32034,0 -0.4572,0.19769 -0.4572,0.6604 0,0.22911 0.0549,0.47143 0.12192,0.53848 0.18666,0.18665 0.56974,0.14507 0.68731,-0.0746 z m 1.34208,0.46937 c -0.44089,-0.46931 -0.23159,-0.90745 0.54076,-1.13198 0.62434,-0.1815 0.77868,-0.46167 0.25433,-0.46167 -0.16764,0 -0.3048,0.0457 -0.3048,0.1016 0,0.13658 -0.47833,0.1302 -0.56344,-0.008 -0.0371,-0.06 0.0368,-0.22004 0.16411,-0.3556 0.18161,-0.19331 0.33488,-0.24648 0.71059,-0.24648 0.73598,0 0.8838,0.1843 0.93715,1.1684 0.0242,0.44704 0.0619,0.8803 0.0836,0.96279 0.0516,0.19569 -0.41477,0.27268 -0.53005,0.0875 -0.0685,-0.11001 -0.12361,-0.1117 -0.28951,-0.009 -0.32267,0.19998 -0.75733,0.1531 -1.00277,-0.10815 z m 1.09989,-0.61793 c 0,-0.19653 -0.0423,-0.22826 -0.25089,-0.18838 -0.138,0.0264 -0.30772,0.11643 -0.37717,0.20011 -0.10298,0.12408 -0.0916,0.1775 0.0617,0.28961 0.25044,0.18312 0.56633,0.015 0.56633,-0.30134 z m 1.41459,0.5561 c -0.25821,-0.25821 -0.29699,-0.37199 -0.29699,-0.87142 0,-0.49943 0.0388,-0.6132 0.29699,-0.87141 0.31065,-0.31066 0.67998,-0.3794 1.03049,-0.19181 0.1822,0.0975 0.19652,0.0679 0.19652,-0.4064 0,-0.50069 0.006,-0.51158 0.3048,-0.51158 h 0.3048 v 1.5748 1.5748 h -0.254 c -0.16215,0 -0.254,-0.0572 -0.254,-0.15816 0,-0.14315 -0.0214,-0.14315 -0.2258,0 -0.3552,0.24879 -0.76704,0.19695 -1.10281,-0.13882 z m 1.10509,-0.33294 c 0.0671,-0.067 0.12192,-0.30937 0.12192,-0.53848 0,-0.46271 -0.13686,-0.6604 -0.4572,-0.6604 -0.32034,0 -0.4572,0.19769 -0.4572,0.6604 0,0.46272 0.13686,0.6604 0.4572,0.6604 0.11735,0 0.26823,-0.0549 0.33528,-0.12192 z m -7.4801,-2.18249 c 0.0279,-0.24318 0.0788,-0.28639 0.33762,-0.28639 0.25739,0 0.3048,0.0395 0.3048,0.254 0,0.21348 -0.0539,0.25917 -0.33762,0.28639 -0.31653,0.0304 -0.33557,0.0145 -0.3048,-0.254 z m -35.04329,-5.09845 c -1.11712,-0.33091 -1.76555,-0.9075 -2.30084,-2.04594 -0.29938,-0.63672 -0.31062,-0.7114 -0.31358,-2.0828 -0.003,-1.38884 0.005,-1.43846 0.3186,-2.10342 0.43223,-0.91513 1.09731,-1.60791 1.88973,-1.96844 0.55188,-0.2511 0.75762,-0.28844 1.5986,-0.29018 0.86726,-0.002 1.03231,0.0296 1.62652,0.30903 1.4389,0.67673 2.08274,1.81049 2.28722,4.02761 l 0.0539,0.5842 h -2.74899 c -3.10526,0 -2.97454,-0.0384 -2.69852,0.79262 0.26549,0.79931 0.8445,1.23938 1.63067,1.23938 0.64369,0 1.03551,-0.22662 1.24808,-0.72187 0.17583,-0.40967 0.17627,-0.40991 0.63315,-0.34635 0.52392,0.0729 1.65979,0.28374 1.71029,0.31749 0.0186,0.0124 -0.0577,0.22973 -0.16967,0.48284 -0.27757,0.62748 -1.02555,1.348 -1.72365,1.66036 -0.78572,0.35157 -2.12883,0.41581 -3.04148,0.14547 z m 2.81811,-5.25638 c 0,-1.38508 -1.71796,-2.07386 -2.67668,-1.07316 -0.26566,0.27729 -0.61823,1.25962 -0.49597,1.38188 0.0313,0.0313 0.75796,0.0569 1.61479,0.0569 h 1.55786 z m 21.13051,5.41218 c -0.0292,-0.0307 -0.17438,-0.0778 -0.32263,-0.10466 -0.87567,-0.15879 -1.95309,-0.97352 -2.36475,-1.7882 -0.76411,-1.51217 -0.72469,-3.63715 0.0934,-5.03305 0.35698,-0.60914 1.10468,-1.21904 1.83202,-1.49437 0.50029,-0.18938 0.80644,-0.23069 1.67868,-0.2265 0.94788,0.005 1.13773,0.0372 1.703,0.29309 0.71308,0.32278 1.2104,0.81308 1.59544,1.57293 0.37316,0.73638 0.354,0.78246 -0.37744,0.90763 -1.58643,0.27149 -1.43513,0.2893 -1.65333,-0.19458 -0.25802,-0.57218 -0.65894,-0.80677 -1.37964,-0.80725 -0.66926,-4.4e-4 -1.1319,0.25763 -1.45568,0.81201 -0.28384,0.486 -0.35402,2.16895 -0.12351,2.96187 0.26105,0.89799 1.02834,1.40521 1.91194,1.26392 0.5941,-0.095 0.85678,-0.31485 1.11203,-0.93068 0.25156,-0.60693 0.22972,-0.59882 1.20719,-0.4482 1.14637,0.17665 1.14795,0.17736 1.08517,0.48578 -0.2143,1.05281 -1.07729,2.08367 -2.05637,2.45639 -0.57178,0.21766 -2.35227,0.41385 -2.48549,0.27387 z m 13.56589,-0.0377 c -1.54696,-0.36256 -2.5993,-1.20494 -3.0988,-2.48055 -0.21916,-0.5597 -0.25375,-0.80889 -0.25224,-1.81706 0.002,-1.00913 0.0351,-1.24457 0.24619,-1.7272 0.51297,-1.17271 1.18125,-1.83899 2.34285,-2.33583 0.80045,-0.34237 2.32638,-0.35219 3.20452,-0.0206 1.33041,0.50232 2.23209,1.52699 2.5886,2.94169 0.10899,0.4325 0.19887,0.91451 0.19972,1.07112 0.002,0.44929 -0.30852,1.70812 -0.5302,2.1462 -0.2634,0.52053 -1.13485,1.43719 -1.65121,1.73689 -0.75912,0.44058 -2.2369,0.6758 -3.04943,0.48537 z m 1.48157,-1.89242 c 1.09935,-0.36001 1.63913,-1.69512 1.31553,-3.25388 -0.13973,-0.67308 -0.63785,-1.32177 -1.19363,-1.55444 -0.99716,-0.41745 -2.25843,0.20245 -2.57036,1.26329 -0.66265,2.25366 0.63862,4.13772 2.44846,3.54503 z m -67.165968,1.68299 c 0,-0.0733 1.12027,-2.99486 1.314363,-3.42778 0.05011,-0.11176 0.325509,-0.82042 0.612005,-1.5748 0.286496,-0.75438 0.562221,-1.46304 0.612721,-1.5748 0.0505,-0.11176 0.212589,-0.52324 0.360197,-0.9144 0.147609,-0.39116 0.326048,-0.84836 0.396532,-1.016 0.07048,-0.16764 0.352169,-0.88753 0.625967,-1.59976 l 0.497815,-1.29495 1.23318,-4.5e-4 1.23318,-4.4e-4 0.330881,0.8382 c 0.181985,0.46101 0.390582,0.97536 0.463549,1.143 0.07297,0.16764 0.778126,1.92786 1.567021,3.9116 0.788895,1.98374 1.518954,3.81254 1.622353,4.064 0.1034,0.25146 0.283054,0.6986 0.399234,0.99364 l 0.21123,0.53643 -1.285022,-0.0284 -1.285019,-0.0284 -0.241319,-0.6604 c -0.132726,-0.36322 -0.282836,-0.75184 -0.333578,-0.8636 -0.05074,-0.11176 -0.150185,-0.37465 -0.220984,-0.5842 l -0.128727,-0.381 h -2.307507 -2.307507 l -0.271513,0.7366 c -0.149331,0.40513 -0.364379,0.97663 -0.477882,1.27 l -0.20637,0.5334 h -1.2074 c -0.66407,0 -1.2074,-0.0348 -1.2074,-0.0774 z m 7.112,-4.58925 c 0,-0.0944 -0.53307,-1.60217 -0.702887,-1.98813 -0.04917,-0.11176 -0.144354,-0.36322 -0.211513,-0.5588 -0.06716,-0.19558 -0.158599,-0.44704 -0.2032,-0.5588 -0.0446,-0.11176 -0.139007,-0.3567 -0.209791,-0.54431 l -0.128699,-0.34111 -0.133007,0.25386 c -0.07315,0.13962 -0.205036,0.47599 -0.293072,0.74751 -0.08804,0.27151 -0.20118,0.58509 -0.251431,0.69685 -0.05025,0.11176 -0.159902,0.40894 -0.243668,0.6604 -0.08377,0.25146 -0.24609,0.70802 -0.360718,1.01457 -0.114628,0.30655 -0.208414,0.5923 -0.208414,0.635 0,0.0427 0.66294,0.0776 1.4732,0.0776 0.842494,0 1.4732,-0.0405 1.4732,-0.0947 z m 10.058398,-1.07373 v -5.7404 h 1.1176 1.1176 v 5.7404 5.7404 h -1.1176 -1.1176 z m 22.63281,2.4638 -0.0268,-3.2766 -0.5842,0.007 -0.5842,0.007 v -0.89615 -0.89615 h 0.59779 0.59778 l 0.0403,-1.0025 c 0.0362,-0.90142 0.0681,-1.03901 0.31638,-1.36452 0.41794,-0.54795 0.82813,-0.79086 1.54192,-0.91313 0.68831,-0.1179 2.21388,0.0131 2.40753,0.20678 0.0634,0.0634 0.0477,0.3472 -0.044,0.79845 l -0.14235,0.70012 -0.71711,-0.0355 c -0.95352,-0.0473 -1.14379,0.11921 -1.14379,1.00074 v 0.6096 h 0.81676 0.81675 l -0.0294,0.88451 -0.0294,0.88451 -0.65519,-0.01 c -0.36035,-0.005 -0.71468,0.0129 -0.7874,0.0408 -0.10472,0.0402 -0.13221,0.72441 -0.13221,3.29106 v 3.24033 h -1.11619 -1.11619 z M 99.709815,114.7572 c -0.03725,-0.0373 -0.06773,-0.86021 -0.06773,-1.8288 v -1.76107 h 0.3556 c 0.251445,0 0.355595,0.0455 0.355595,0.15544 0,0.12433 0.0604,0.11076 0.30189,-0.0678 0.2742,-0.20273 0.33987,-0.21182 0.71606,-0.0991 0.60248,0.18051 0.83213,0.59136 0.78627,1.40666 -0.03,0.53338 -0.0819,0.68158 -0.32933,0.9398 -0.23659,0.24694 -0.37776,0.30656 -0.7259,0.30656 -0.23771,0 -0.46045,-0.0457 -0.49499,-0.1016 -0.15516,-0.25105 -0.254,-0.0534 -0.254,0.508 0,0.60163 -0.004,0.6096 -0.28786,0.6096 -0.158328,0 -0.318348,-0.0305 -0.355602,-0.0677 z m 1.557865,-1.65947 c 0.39427,-0.39426 0.16979,-1.4224 -0.31056,-1.4224 -0.33415,0 -0.60384,0.36301 -0.60384,0.8128 0,0.42587 0.26602,0.8128 0.5588,0.8128 0.0838,0 0.24384,-0.0914 0.3556,-0.2032 z m -9.865573,0.48178 c -0.733695,-0.48758 -1.019914,-1.68916 -0.598925,-2.51437 0.312879,-0.61329 0.831472,-0.91413 1.572685,-0.91231 0.73229,0.002 1.034047,0.13785 1.351985,0.60958 l 0.23867,0.35412 -0.31889,0.13018 c -0.3003,0.12259 -0.335661,0.11222 -0.606583,-0.1778 -0.395118,-0.42298 -0.915305,-0.42727 -1.331583,-0.011 -0.263899,0.2639 -0.296984,0.36664 -0.296984,0.92221 0,0.55558 0.03308,0.65832 0.296984,0.92222 0.225513,0.22551 0.39123,0.29698 0.688594,0.29698 0.459012,0 0.843222,-0.23409 0.843222,-0.51376 0,-0.16261 -0.07169,-0.19744 -0.4064,-0.19744 -0.397643,0 -0.4064,-0.008 -0.4064,-0.35987 v -0.35987 l 0.7874,0.0297 0.7874,0.0297 v 0.75381 0.75381 l -0.44778,0.23679 c -0.625534,0.33079 -1.661388,0.33434 -2.153395,0.007 z m 3.261575,-1.09138 v -1.3208 h 0.296333 c 0.162984,0 0.316324,0.0571 0.340757,0.127 0.03295,0.0942 0.09417,0.0833 0.237066,-0.0423 0.123844,-0.10883 0.292074,-0.15002 0.471054,-0.11534 0.241549,0.0468 0.269956,0.0894 0.214553,0.32169 -0.09138,0.38313 -0.106955,0.39778 -0.369717,0.34755 -0.359338,-0.0687 -0.468535,0.15708 -0.542712,1.12209 l -0.06771,0.8809 h -0.289811 -0.289811 z m 2.140974,1.0531 c -0.18227,-0.23172 -0.210574,-0.40925 -0.210574,-1.3208 v -1.0531 h 0.351921 0.351921 l 0.02908,0.97982 c 0.03281,1.10543 0.144585,1.29579 0.630789,1.07426 0.254762,-0.11607 0.26189,-0.14565 0.26189,-1.0867 v -0.96738 h 0.3556 0.3556 l 0.0127,1.1176 c 0.007,0.61468 0.01841,1.19761 0.0254,1.2954 0.0093,0.12968 -0.07667,0.18642 -0.3175,0.20964 -0.249755,0.0241 -0.3302,-0.008 -0.3302,-0.13276 0,-0.1498 -0.0203,-0.15038 -0.225807,-0.006 -0.124193,0.087 -0.418055,0.15816 -0.653025,0.15816 -0.34052,0 -0.469954,-0.0543 -0.637794,-0.2677 z m 6.369304,0.10866 c -0.83692,-0.45411 -0.75,-2.01822 0.13246,-2.38375 0.92057,-0.38131 1.76312,0.0381 1.96675,0.97904 0.0869,0.40155 -0.1785,1.08928 -0.52578,1.36245 -0.31182,0.24528 -1.15741,0.26799 -1.57343,0.0423 z m 1.14172,-0.55216 c 0.23911,-0.2391 0.27489,-0.87913 0.0652,-1.16591 -0.15158,-0.2073 -0.71256,-0.25935 -0.88938,-0.0825 -0.0584,0.0584 -0.13104,0.29117 -0.16136,0.51721 -0.0466,0.34732 -0.0146,0.45151 0.2066,0.6727 0.31465,0.31465 0.50829,0.3292 0.77896,0.0585 z"
           id="path1" /></g></g></g></svg>
